<svg width="459" height="333" viewBox="0 0 459 333" fill="none" xmlns="http://www.w3.org/2000/svg">
<rect x="-134" width="593" height="333" rx="20" fill="black"/>
<path d="M177.023 162.966C178.357 163.736 178.357 165.66 177.023 166.43L160.413 176.02C159.079 176.79 157.413 175.828 157.413 174.288L157.413 155.108C157.413 153.568 159.079 152.606 160.413 153.376L177.023 162.966Z" fill="#B21414"/>
<path d="M228 173.154C228 191.173 223.716 205.392 215.079 215.098C206.461 224.783 193.369 230.128 175.41 230.128C157.522 230.128 137.888 222.145 122.72 209.632C107.547 197.114 97 180.198 97 162.436C97 144.713 107.505 130.127 122.643 119.926C137.783 109.723 157.439 104 175.41 104C193.21 104 206.311 112.267 215 125.019C223.714 137.807 228 155.132 228 173.154Z" stroke="#B21414" stroke-width="2"/>
</svg>
