<svg width="593" height="333" viewBox="0 0 593 333" fill="none" xmlns="http://www.w3.org/2000/svg">
<rect width="593" height="333" rx="20" fill="black"/>
<path d="M311.023 161.966C312.357 162.736 312.357 164.66 311.023 165.43L294.413 175.02C293.079 175.79 291.413 174.828 291.413 173.288L291.413 154.108C291.413 152.568 293.079 151.606 294.413 152.376L311.023 161.966Z" fill="#B21414"/>
<path d="M362 172.154C362 189.905 353.07 202.189 339.615 210.086C326.112 218.011 308.057 221.5 290 221.5C272.201 221.5 257.728 212.77 247.675 199.517C237.611 186.249 232 168.466 232 150.5C232 132.824 242.2 120.991 257.034 113.522C271.905 106.033 291.335 103 309.41 103C327.21 103 340.311 111.267 349 124.019C357.714 136.807 362 154.132 362 172.154Z" stroke="#B21414" stroke-width="2"/>
</svg>
